<svg xmlns="http://www.w3.org/2000/svg" width="463.7" height="270.726" viewBox="0 0 463.7 270.726">
  <path id="blob6" d="M296.052-64.138C331.934-55.062,350.58-22.752,361.6,8.832c11.019,31.4,14.691,62.261-.565,88.037s-49.725,46.469-87.584,62.624c-37.859,15.974-79.108,27.409-121.487,28.5-42.379.908-85.888-8.531-126.29-23.961-40.4-15.611-77.413-37.211-96.059-64.984S-89.6,37.512-64.17,15.912c25.145-21.782,76-31.4,116.684-39.571,40.4-7.987,70.632-14.522,112.163-24.868C206.491-58.874,260.171-73.033,296.052-64.138Z" transform="translate(90.386 69.834) rotate(2)" opacity="0.53"/>
</svg>
