<svg xmlns="http://www.w3.org/2000/svg" width="381.907" height="330.365" viewBox="0 0 381.907 330.365">
  <path id="blob5" d="M268.587.392c25.3,8.256,38.224,38.288,45.764,67.687,7.542,29.23,9.894,58-1.1,82.13s-35.523,43.641-62.417,58.934c-26.893,15.123-56.146,26.033-86.117,27.3-29.969,1.1-60.656-7.455-89.1-21.611-28.44-14.326-54.437-34.259-67.4-60.058s-13.1-57.291,5.052-77.591c17.95-20.467,53.981-29.741,82.809-37.6,28.627-7.688,50.052-13.961,79.5-23.857C205.225,5.828,243.289-7.7,268.587.392Z" transform="translate(77.945 2.288) rotate(19)"/>
</svg>
