<svg xmlns="http://www.w3.org/2000/svg" width="951.117" height="882.309" viewBox="0 0 951.117 882.309">
  <path id="blob4" d="M550.868-60.306c59.946,21.457,91.1,97.842,109.508,172.511,18.409,74.24,24.545,147.192-.944,208.129S576.357,430.192,513.107,468.385c-63.25,37.764-132.165,64.8-202.968,67.374-70.8,2.146-143.494-20.169-210.992-56.645-67.5-36.905-129.333-87.972-160.486-153.629s-32.1-145.476,10.384-196.543C-8.945,77.445,76.018,54.7,143.989,35.39c67.5-18.882,118-34.331,187.391-58.791C401.239-47.861,490.922-81.334,550.868-60.306Z" transform="matrix(-0.891, -0.454, 0.454, -0.891, 633.091, 784.58)" opacity="0.53"/>
</svg>
